<svg xmlns="http://www.w3.org/2000/svg" class="HeaderLogo" viewBox="0 0 227 228">
  <title>The Home Depot Logo</title>
    <g fill="none" fill-rule="evenodd">
      <path fill="#fff" d="M 0.532 0.834 h 226.317 v 226.317 H 0.532 V 0.834 Z" />
      <path fill="#f96302" d="M 0.532 0.834 H 142.53 c 11.431 0 22.863 -0.024 34.27 0.023 c -3.161 3.208 -6.394 6.393 -9.577 9.602 c 1.258 1.33 2.589 2.566 3.849 3.873 c 2.9 -1.996 6.179 -3.588 9.744 -3.85 c 3.208 -0.333 6.441 0.499 9.387 1.783 c 1.117 0.475 2.163 1.235 3.422 1.354 c 1.236 -0.071 2.163 -1.164 2.591 -2.258 c 0.356 -0.759 0.023 -1.663 -0.57 -2.21 c -2.757 -2.78 -5.538 -5.513 -8.271 -8.294 c 13.166 -0.071 26.332 0 39.475 -0.023 c 0 12.833 0.023 25.69 0 38.547 c -2.709 -2.661 -5.348 -5.371 -8.034 -8.032 c -0.713 -0.738 -1.876 -1.118 -2.851 -0.666 c -0.642 0.309 -1.26 0.808 -1.545 1.497 c -0.357 1.379 0.262 2.733 0.808 3.968 c 1.664 3.518 2.401 7.487 1.902 11.361 c -0.333 2.638 -1.284 5.228 -2.71 7.486 c -0.38 0.546 -0.736 1.116 -1.069 1.688 c 1.378 1.187 2.543 2.613 3.945 3.778 c 3.137 -3.232 6.369 -6.393 9.554 -9.602 c 0 21.46 0.023 42.921 0 64.381 c -0.619 0.214 -1.308 0.642 -1.95 0.332 c -0.855 -0.546 -1.497 -1.354 -2.21 -2.043 c -7.7 -7.653 -15.329 -15.377 -23.052 -23.005 c -3.066 3.066 -6.083 6.155 -9.198 9.15 c 1.641 1.853 3.471 3.493 5.182 5.275 c 6.179 6.18 12.357 12.359 18.561 18.537 c 0.522 0.547 1.14 1.023 1.425 1.736 c 0.095 0.784 -0.451 1.449 -0.665 2.162 c -0.309 0.832 0.357 1.83 1.236 1.853 c 0.784 0.144 1.45 -0.38 1.949 -0.902 c 2.899 -2.924 5.822 -5.823 8.722 -8.723 v 107.539 H 119.287 c 2.757 -2.756 5.514 -5.49 8.271 -8.247 c -9.387 -9.363 -18.751 -18.727 -28.115 -28.114 c -3.065 2.947 -6.012 6.013 -9.054 8.983 c -0.642 0.666 -1.355 1.307 -1.663 2.21 c -0.143 0.879 0.665 1.711 1.52 1.759 c 0.761 -0.095 1.402 -0.595 2.163 -0.761 c 0.665 -0.046 1.189 0.476 1.663 0.904 c 5.562 5.608 11.147 11.17 16.732 16.755 c 1.401 1.472 2.923 2.803 4.229 4.325 c 0.595 0.665 0.191 1.52 -0.142 2.186 H 50.559 c 5.061 -5.062 10.124 -10.124 15.185 -15.186 c 0.95 -0.903 1.925 -1.948 2.067 -3.327 c 0.214 -1.592 -1.401 -3.185 -2.994 -2.852 c -1.331 0.261 -2.423 1.307 -3.802 1.307 c -0.879 -0.071 -1.545 -0.713 -2.139 -1.283 c -12.097 -12.073 -24.169 -24.169 -36.242 -36.243 c -0.808 -0.807 -1.782 -1.591 -2.068 -2.757 c -0.047 -1.377 0.927 -2.495 1.284 -3.754 c 0.451 -1.592 -1.046 -3.328 -2.663 -3.208 c -1.116 0.071 -2.114 0.712 -2.874 1.497 c -5.229 5.3 -10.552 10.528 -15.781 15.828 C 0.508 118.4 0.532 59.606 0.532 0.834" />
      <path fill="#fff" d="M 163.776 13.881 c 0.214 -0.237 0.594 -0.452 0.808 -0.095 c 16.564 16.54 33.129 33.105 49.67 49.669 c -5.799 5.799 -11.621 11.621 -17.42 17.444 c -0.761 0.713 -1.688 1.307 -2.733 1.378 c -1.45 0.12 -2.9 -1.188 -2.781 -2.662 c 0.048 -1.449 1.283 -2.566 1.307 -4.04 c 0.048 -0.927 -0.665 -1.615 -1.259 -2.258 c -12.287 -12.262 -24.55 -24.548 -36.837 -36.836 c -0.689 -0.665 -1.449 -1.497 -2.495 -1.425 c -1.545 0.023 -2.709 1.449 -4.277 1.283 c -0.904 0.023 -1.641 -0.69 -2.092 -1.426 c -0.618 -1.283 -0.048 -2.828 0.88 -3.778 c 5.751 -5.752 11.502 -11.503 17.229 -17.254 M 187.637 18.705 c 0.475 -0.879 1.378 -1.687 2.447 -1.545 c 1.188 0.096 2.044 1.069 2.828 1.854 c 4.754 4.777 9.507 9.53 14.26 14.283 c 0.903 0.88 1.972 1.735 2.186 3.042 c 0.119 1.354 -1.117 2.566 -2.424 2.709 c -1.093 0.024 -2.091 -0.57 -3.041 -1.093 c -2.021 -1.188 -4.302 -2.139 -6.703 -2.02 c -1.236 -0.024 -2.423 0.475 -3.541 0.974 c -1.307 -1.402 -2.804 -2.661 -4.04 -4.111 c 0.38 -1.069 0.879 -2.091 0.951 -3.233 c 0.167 -2.589 -0.879 -5.061 -2.187 -7.224 c -0.665 -1.069 -1.188 -2.401 -0.736 -3.636 M 82.902 31.301 c 2.568 -2.709 5.277 -5.252 7.843 -7.938 c 2.448 2.376 4.824 4.777 7.225 7.177 c 0.784 0.761 0.071 2.044 -0.808 2.353 c -0.737 0.095 -1.379 -0.404 -2.044 -0.642 c -2.566 -1.259 -5.751 -1.401 -8.317 -0.023 c -0.666 0.285 -1.213 0.855 -1.926 0.974 c -0.713 -0.57 -1.307 -1.283 -1.973 -1.901 M 81.287 32.821 c 3.493 3.375 6.868 6.869 10.314 10.267 c 5.395 5.371 10.765 10.79 16.184 16.161 c -3.09 3.137 -6.203 6.227 -9.316 9.316 c -0.642 0.712 -1.925 1.022 -2.543 0.142 c -0.76 -0.808 0.071 -1.806 0.309 -2.638 c 0.285 -0.618 -0.213 -1.164 -0.618 -1.591 c -6.226 -6.204 -12.43 -12.407 -18.632 -18.633 c -0.57 -0.523 -1.046 -1.164 -1.735 -1.521 c -0.95 -0.214 -1.687 0.642 -2.614 0.69 c -0.713 -0.072 -1.378 -0.784 -1.283 -1.522 c 0.047 -0.57 0.38 -1.069 0.784 -1.473 c 3.042 -3.066 6.132 -6.084 9.15 -9.198 M 93.692 36.624 c -0.308 -0.784 0.238 -1.734 1.07 -1.853 c 0.618 -0.095 1.117 0.379 1.545 0.784 c 2.566 2.566 5.132 5.157 7.723 7.7 c 0.451 0.499 1.093 0.95 1.141 1.687 c 0.095 0.737 -0.618 1.45 -1.378 1.378 c -0.999 0 -1.759 -0.784 -2.662 -1.117 c -1.331 -0.617 -2.947 -0.665 -4.254 0.048 c -0.689 -0.689 -1.379 -1.402 -2.092 -2.044 c 0.31 -1.046 0.595 -2.162 0.333 -3.256 c -0.19 -1.235 -1.046 -2.186 -1.426 -3.327 M 139.203 38.478 c 0.642 -0.642 1.449 -1.117 2.353 -1.236 c 1.591 -0.237 3.255 1.307 2.947 2.923 c -0.214 1.426 -1.402 2.566 -1.308 4.065 c 0.238 1.044 1.094 1.757 1.782 2.495 c 12.145 12.12 24.289 24.216 36.385 36.36 c 0.666 0.595 1.331 1.379 2.282 1.379 c 1.426 0 2.519 -1.069 3.874 -1.308 c 1.568 -0.26 3.113 1.284 2.922 2.853 c -0.094 1.069 -0.736 1.996 -1.472 2.732 c -6.109 6.084 -12.193 12.216 -18.3 18.3 c -0.784 0.784 -1.782 1.497 -2.946 1.497 c -1.285 0.071 -2.52 -1.021 -2.686 -2.281 c -0.167 -1.664 1.378 -2.9 1.33 -4.564 c -0.071 -0.784 -0.617 -1.425 -1.14 -1.996 c -10.671 -10.646 -21.318 -21.317 -31.988 -31.964 c 8.817 16.374 17.705 32.702 26.522 49.076 c 0.142 0.237 0.261 0.499 0.38 0.784 c -0.641 0.593 -1.259 1.235 -1.877 1.877 c -17.658 -8.697 -35.292 -17.492 -52.926 -26.213 c -2.78 -1.378 -5.537 -2.994 -8.674 -3.374 c -1.046 -0.144 -1.759 0.713 -2.519 1.259 c -0.785 0.618 -1.831 0.998 -2.804 0.689 c -1.165 -0.522 -1.973 -1.901 -1.616 -3.161 c 0.237 -0.855 0.831 -1.568 1.449 -2.187 c 5.704 -5.679 11.384 -11.382 17.088 -17.039 c 8.887 4.349 17.799 8.603 26.712 12.953 c 0.285 0.213 0.593 0.427 0.855 0.712 c 0.143 -0.167 0.262 -0.333 0.404 -0.499 l -0.333 0.047 c -4.681 -8.912 -9.6 -17.705 -14.283 -26.617 c 5.894 -5.846 11.717 -11.716 17.587 -17.562 M 107.999 42.494 c 0.428 -0.784 1.64 -0.879 2.21 -0.214 c 2.4 2.424 4.849 4.848 7.272 7.273 c -2.709 2.732 -5.419 5.442 -8.174 8.151 c -0.618 -0.713 -1.451 -1.283 -1.926 -2.115 c 0.784 -1.331 1.616 -2.686 1.83 -4.254 c 0.404 -2.163 0.048 -4.444 -0.879 -6.44 c -0.262 -0.761 -0.832 -1.64 -0.333 -2.401 M 68.097 46.059 c 0.475 -0.499 0.998 -1.022 1.687 -1.188 c 0.69 -0.142 1.545 0.285 1.64 1.045 c 0.167 0.832 -0.451 1.522 -0.617 2.329 c -0.096 0.642 0.427 1.094 0.807 1.522 c 6.346 6.344 12.667 12.69 19.013 19.011 c 0.428 0.405 0.879 0.904 1.497 1.046 c 0.76 -0.071 1.401 -0.57 2.139 -0.736 c 0.903 -0.096 1.734 0.879 1.449 1.734 c -0.118 0.642 -0.617 1.118 -1.045 1.569 c -3.09 3.09 -6.18 6.179 -9.269 9.245 c -0.546 0.547 -1.259 1.117 -2.068 0.927 c -0.451 -0.191 -0.831 -0.547 -0.998 -0.998 c -0.237 -1.046 0.88 -1.902 0.618 -2.948 c -0.237 -0.403 -0.57 -0.713 -0.879 -1.045 c -2.899 -2.876 -5.775 -5.799 -8.698 -8.674 c -1.022 1.045 -2.044 2.067 -3.09 3.089 c -0.713 -0.689 -1.426 -1.379 -2.091 -2.115 c 1.045 -1.022 2.068 -2.067 3.114 -3.09 c -2.568 -2.518 -5.111 -5.086 -7.653 -7.629 c -0.547 -0.522 -1.022 -1.092 -1.664 -1.472 c -1.164 -0.381 -2.281 1.259 -3.398 0.356 c -0.904 -0.641 -0.618 -1.926 0.119 -2.591 c 3.113 -3.161 6.273 -6.25 9.387 -9.387" />
      <path fill="#fff" d="M 55.929 58.394 c 0.714 -0.453 1.783 -0.167 2.115 0.641 c 0.333 0.974 -0.546 1.806 -0.57 2.757 c -0.024 0.499 0.38 0.855 0.689 1.188 c 6.583 6.584 13.143 13.166 19.726 19.725 c 1.187 1.283 2.709 -0.927 3.992 0.024 c 0.832 0.666 0.547 1.972 -0.166 2.59 c -3.09 3.114 -6.203 6.179 -9.269 9.292 c -0.499 0.476 -0.998 1.046 -1.687 1.26 c -0.761 0.214 -1.688 -0.262 -1.782 -1.069 c -0.143 -0.95 0.713 -1.688 0.665 -2.615 c -0.12 -0.404 -0.38 -0.736 -0.665 -1.045 C 62.75 84.94 56.523 78.713 50.32 72.486 c -0.593 -0.546 -1.092 -1.236 -1.877 -1.521 c -0.855 -0.047 -1.568 0.595 -2.4 0.689 c -0.713 0.024 -1.331 -0.618 -1.355 -1.306 c -0.071 -0.738 0.452 -1.331 0.951 -1.83 c 3.089 -3.09 6.178 -6.18 9.245 -9.269 c 0.332 -0.309 0.641 -0.618 1.045 -0.855 M 38.747 75.386 c 1.426 -1.379 2.804 -2.805 4.23 -4.207 c 2.496 2.425 4.943 4.943 7.439 7.391 c 0.428 0.475 0.95 0.903 1.187 1.521 c 0.286 1.165 -1.044 2.448 -2.209 1.925 c -1.165 -0.523 -2.091 -1.45 -3.209 -2.068 c -1.877 -1.164 -4.064 -1.901 -6.297 -1.639 c -0.642 -0.665 -1.355 -1.284 -1.925 -1.996 c 0.189 -0.381 0.499 -0.642 0.784 -0.927 M 28.385 85.747 c 2.662 -2.614 5.276 -5.252 7.914 -7.89 c 4.991 5.015 10.005 10.029 15.019 15.02 c 2.757 2.732 5.443 5.514 8.223 8.199 c 0.785 0.879 1.83 0.143 2.686 -0.167 c 0.855 -0.38 1.854 0.381 1.83 1.283 c 0 0.618 -0.357 1.141 -0.76 1.57 c -3.232 3.208 -6.417 6.416 -9.625 9.625 c -0.452 0.451 -1.023 0.902 -1.688 0.855 c -0.737 0.072 -1.45 -0.641 -1.379 -1.355 c 0.048 -0.76 0.642 -1.378 0.642 -2.139 c 0.048 -0.642 -0.499 -1.046 -0.879 -1.474 c -7.581 -7.533 -15.091 -15.137 -22.696 -22.648 c 0.238 -0.309 0.452 -0.594 0.713 -0.879 M 206.744 83.418 c 2.946 2.899 5.87 5.822 8.77 8.769 c 0.926 0.88 0.261 2.638 -0.975 2.829 c -1.141 0.166 -2.02 -0.737 -2.899 -1.331 c -2.353 -1.617 -5.134 -3.137 -8.08 -2.638 c -0.785 -0.713 -1.545 -1.45 -2.187 -2.281 c 1.83 -1.759 3.589 -3.566 5.371 -5.348 M 25.961 88.242 c 0.88 0.333 1.426 1.331 2.139 1.949 c -0.38 2.757 0.926 5.347 2.471 7.51 c 0.452 0.69 0.998 1.331 1.283 2.115 c 0.31 1.046 -0.712 2.139 -1.758 2.02 c -0.594 0 -0.998 -0.499 -1.378 -0.855 c -2.591 -2.615 -5.204 -5.181 -7.795 -7.795 c 1.711 -1.617 3.304 -3.351 5.038 -4.944 M 78.839 101.647 c 4.729 -1.522 9.862 -1.688 14.734 -0.69 c 8.271 1.759 15.59 6.607 21.437 12.619 c 5.727 5.799 10.29 13.072 11.835 21.175 c 0.855 4.444 0.665 9.102 -0.617 13.451 c -1.26 4.302 -3.543 8.271 -6.418 11.693 c -1.236 -1.307 -2.59 -2.519 -3.779 -3.85 c 0 -0.642 0.404 -1.189 0.524 -1.806 c 0.641 -2.091 0 -4.444 -1.593 -5.966 c -11.739 -11.763 -23.527 -23.527 -35.268 -35.291 c -1.069 -1.093 -2.423 -1.972 -3.968 -2.091 c -1.26 -0.166 -2.496 0.285 -3.684 0.712 c -0.476 0.262 -0.784 -0.331 -1.093 -0.57 c -0.951 -1.021 -1.997 -1.948 -2.947 -2.994 c 0 -0.071 -0.024 -0.214 -0.024 -0.285 c 3.161 -2.709 6.869 -4.824 10.861 -6.107 M 110.875 100.339 c 1.093 0.356 2.091 0.903 3.113 1.426 c 3.827 1.854 7.628 3.779 11.479 5.656 c 0.332 0.167 0.641 0.428 0.927 0.689 c 3.231 3.28 6.488 6.512 9.743 9.768 c 1.759 1.878 3.968 3.327 6.369 4.23 c 1.687 0.642 3.589 0.642 5.276 0.047 c 0.856 -0.285 1.783 -0.617 2.686 -0.332 c 0.903 0.357 1.568 1.26 1.639 2.234 c -0.071 1.307 -0.903 2.4 -1.782 3.303 c -2.899 2.947 -5.847 5.871 -8.793 8.77 c -0.784 0.713 -1.687 1.449 -2.781 1.568 c -1.568 0.237 -3.113 -1.425 -2.638 -2.947 c 0.452 -1.545 1.07 -3.113 0.809 -4.729 c -0.381 -2.71 -1.926 -5.11 -3.637 -7.177 c -6.44 -6.464 -12.904 -12.905 -19.368 -19.393 c -0.999 -1.046 -2.092 -1.996 -3.042 -3.113 M 183.358 106.803 c 1.784 -1.782 3.589 -3.565 5.372 -5.37 c 0.784 0.641 1.473 1.402 2.21 2.115 c -0.309 2.376 0.5 4.728 1.735 6.725 c 0.641 1.141 1.568 2.115 2.139 3.303 c 0.309 0.571 0.095 1.212 -0.119 1.782 c 2.995 2.021 5.632 4.587 7.724 7.51 c 2.4 3.399 4.087 7.439 3.992 11.669 c 0.024 4.017 -1.711 7.866 -4.254 10.908 c -0.689 -0.713 -1.497 -1.354 -2.092 -2.162 c 0.12 -0.88 0.547 -1.735 0.333 -2.614 c -0.237 -1.141 -1.117 -1.949 -1.901 -2.734 c -6.273 -6.25 -12.524 -12.499 -18.774 -18.75 c -0.618 -0.618 -1.355 -1.188 -2.235 -1.259 c -0.831 -0.096 -1.663 0.142 -2.423 0.403 c -0.737 -0.688 -1.473 -1.426 -2.186 -2.139 c 3.16 -2.709 7.271 -4.444 11.478 -4.23 c 1.616 -0.047 3.185 0.333 4.753 0.689 c -1.901 -1.972 -3.922 -3.826 -5.752 -5.846 M 58.995 120.753 c 1.307 -3.636 3.374 -6.963 5.822 -9.934 c 1.212 1.237 2.496 2.424 3.684 3.684 c 0.237 0.761 -0.38 1.474 -0.499 2.234 c -0.618 2.044 0.19 4.278 1.688 5.751 c 11.549 11.574 23.123 23.124 34.697 34.697 c 1.117 1.213 2.471 2.353 4.182 2.615 c 1.521 0.238 3.019 -0.285 4.421 -0.808 c 1.283 1.283 2.567 2.543 3.85 3.826 c -2.805 2.448 -6.061 4.373 -9.53 5.728 c -5.229 2.019 -11.075 2.352 -16.565 1.141 c -8.342 -1.831 -15.685 -6.845 -21.555 -12.953 c -5.418 -5.679 -9.792 -12.643 -11.336 -20.415 c -1.045 -5.156 -0.712 -10.622 1.141 -15.566 M 167.008 127.622 c 0.286 -3.612 1.878 -7.058 4.255 -9.768 c 0.688 0.713 1.426 1.426 2.138 2.139 c -0.261 0.856 -0.666 1.759 -0.427 2.661 c 0.142 0.809 0.688 1.451 1.259 2.021 c 6.274 6.25 12.5 12.524 18.775 18.774 c 0.736 0.713 1.449 1.569 2.495 1.854 c 0.951 0.262 1.925 -0.072 2.851 -0.357 c 0.714 0.714 1.451 1.427 2.14 2.187 c -2.995 2.471 -6.726 4.207 -10.671 4.207 c -3.826 0.166 -7.581 -1.189 -10.765 -3.185 c -2.306 -1.473 -4.421 -3.256 -6.179 -5.324 c 0.831 2.781 0.642 5.895 -0.666 8.509 c -1.283 2.566 -3.279 4.658 -5.252 6.678 c -0.713 -0.713 -1.45 -1.451 -2.187 -2.163 c 0.619 -0.999 1.023 -2.187 0.642 -3.351 c -0.451 -1.189 -1.426 -2.044 -2.281 -2.947 c -1.759 -1.783 -3.541 -3.565 -5.324 -5.347 c -1.045 -0.975 -2.163 -2.092 -3.66 -2.187 c -0.879 -0.094 -1.663 0.357 -2.4 0.785 c -0.736 -0.713 -1.449 -1.45 -2.186 -2.162 c 2.851 -2.876 6.107 -5.847 10.29 -6.37 c 3.422 -0.571 6.868 0.903 9.292 3.256 c -1.521 -3.042 -2.471 -6.465 -2.139 -9.91 M 41.741 135.916 c 0.713 -0.689 1.64 -1.212 2.638 -1.283 c 1.64 -0.096 3.138 1.615 2.685 3.208 c -0.356 1.212 -1.235 2.281 -1.283 3.589 c 0.095 1.14 1.046 1.948 1.807 2.709 c 12.191 12.191 24.406 24.407 36.598 36.598 c 0.571 0.547 1.212 1.093 2.02 1.164 c 1.378 0 2.448 -1.021 3.755 -1.33 c 1.568 -0.309 3.137 1.117 3.066 2.685 c -0.048 1.07 -0.642 2.044 -1.379 2.804 c -6.131 6.132 -12.287 12.288 -18.418 18.419 c -0.808 0.784 -1.806 1.473 -2.97 1.473 c -1.426 0.048 -2.757 -1.306 -2.639 -2.757 c 0.144 -1.425 1.331 -2.566 1.356 -4.04 c -0.048 -0.879 -0.738 -1.545 -1.284 -2.162 c -5.466 -5.49 -10.956 -10.933 -16.398 -16.398 c -0.214 -0.166 -0.499 -0.642 -0.808 -0.31 c -1.901 1.83 -3.731 3.756 -5.633 5.585 c -1.283 -1.283 -2.566 -2.566 -3.85 -3.873 c 1.83 -1.925 3.731 -3.803 5.656 -5.656 c 0 -0.096 0.025 -0.309 0.025 -0.405 c -5.158 -5.061 -10.22 -10.195 -15.353 -15.304 c -0.784 -0.737 -1.522 -1.663 -2.614 -1.925 c -1.497 -0.096 -2.662 1.069 -4.064 1.331 c -1.806 0.309 -3.446 -1.735 -2.828 -3.423 c 0.309 -1.188 1.259 -2.044 2.091 -2.851 c 5.941 -5.965 11.906 -11.883 17.824 -17.848 M 147.853 142.333 c 2.852 2.661 5.538 5.513 8.342 8.246 c 5.324 5.347 10.671 10.694 16.018 16.041 c 0.38 0.31 0.736 0.737 1.235 0.832 c 1.023 0.096 1.83 -0.903 2.853 -0.713 c 0.618 0.214 1.187 0.809 1.117 1.497 c 0 0.927 -0.785 1.569 -1.356 2.187 c -3.35 3.304 -6.654 6.654 -10.004 9.958 c -0.737 0.808 -2.116 0.404 -2.567 -0.499 c -0.665 -1.117 1.141 -2.306 0.191 -3.327 c -6.893 -6.868 -13.785 -13.761 -20.653 -20.653 c -0.499 -0.451 -0.926 -1.021 -1.521 -1.331 c -1.022 -0.285 -1.83 0.571 -2.78 0.69 c -0.737 -0.071 -1.45 -0.713 -1.403 -1.474 c -0.071 -0.832 0.547 -1.472 1.069 -2.019 c 3.162 -3.138 6.323 -6.298 9.459 -9.435 M 126.655 163.508 c 2.827 -2.781 5.584 -5.656 8.46 -8.39 c 2.543 2.567 5.11 5.11 7.653 7.676 c 0.855 0.832 -0.048 2.092 -0.927 2.472 c -0.618 0.071 -1.189 -0.309 -1.736 -0.546 c -2.185 -1.071 -4.705 -1.593 -7.105 -0.975 c -1.521 0.309 -2.852 1.164 -4.183 1.948 c -0.713 -0.736 -1.425 -1.472 -2.162 -2.185 M 115.104 175.081 c 3.281 -3.327 6.608 -6.583 9.887 -9.887 c 5.323 5.253 10.575 10.6 15.923 15.852 c 4.088 4.064 8.128 8.176 12.239 12.216 c -3.184 3.279 -6.463 6.464 -9.649 9.719 c -0.451 0.5 -1.093 0.785 -1.687 1.046 c -0.594 -0.213 -1.331 -0.427 -1.521 -1.092 c -0.356 -1.118 0.808 -1.997 0.666 -3.09 c -0.476 -0.927 -1.308 -1.593 -2.021 -2.329 c -5.775 -5.776 -11.549 -11.55 -17.325 -17.326 c -1.021 -0.95 -1.877 -2.09 -3.089 -2.803 c -1.212 -0.239 -2.305 1.306 -3.469 0.474 c -0.998 -0.641 -0.713 -2.067 0.046 -2.78 M 138.157 169.188 c -0.38 -0.975 0.523 -2.116 1.545 -1.95 c 0.475 0.119 0.831 0.428 1.164 0.761 c 2.495 2.52 5.015 4.991 7.487 7.51 c 0.807 0.832 1.853 1.545 2.186 2.733 c -0.309 0.523 -0.642 1.236 -1.354 1.307 c -1.166 0.119 -2.021 -0.808 -3.067 -1.189 c -1.426 -0.713 -3.16 -0.713 -4.586 0.025 c -0.76 -0.761 -1.497 -1.522 -2.258 -2.258 c 0.523 -1.117 0.761 -2.4 0.38 -3.589 c -0.285 -1.212 -1.093 -2.21 -1.497 -3.35 M 153.438 175.39 c 0.499 -0.76 1.711 -0.879 2.305 -0.166 c 2.567 2.591 5.182 5.157 7.724 7.771 c -2.923 2.852 -5.727 5.846 -8.722 8.627 c -0.688 -0.737 -1.426 -1.45 -2.139 -2.187 c 2.543 -3.136 2.9 -7.676 1.189 -11.288 c -0.31 -0.856 -0.975 -1.902 -0.357 -2.757" />
      <path fill="#f96302" d="M 0.532 184.849 c 0.95 -0.38 1.854 -0.975 2.9 -0.951 c 1.259 0.238 2.044 1.355 2.922 2.186 c 11.955 11.907 23.861 23.837 35.791 35.743 c 0.665 0.738 1.521 1.474 1.64 2.52 c -0.048 1.021 -0.595 1.925 -1.021 2.828 c -14.094 -0.024 -28.162 -0.024 -42.232 -0.024 c 0 -14.093 -0.024 -28.21 0 -42.302" />
      <path fill="#fff" d="M 111.16 184.207 c 4.23 -0.356 8.437 1.164 11.93 3.47 c 2.733 1.83 5.276 3.945 7.224 6.583 c 2.33 3.113 3.755 6.916 3.78 10.837 c 0.07 4.468 -1.688 8.983 -4.872 12.143 c -0.738 -0.713 -1.451 -1.425 -2.163 -2.162 c 0.427 -0.807 0.926 -1.663 0.784 -2.614 c -0.237 -1.426 -1.212 -2.591 -2.187 -3.565 c -5.346 -5.347 -10.694 -10.694 -16.041 -16.042 c -1.093 -1.069 -2.329 -2.234 -3.945 -2.352 c -0.879 -0.095 -1.664 0.356 -2.4 0.784 c -0.69 -0.761 -1.64 -1.331 -2.068 -2.281 c 2.614 -2.686 6.179 -4.564 9.958 -4.801 M 207.213 213.727 c 0 -4.264 3.459 -7.409 7.547 -7.409 c 4.049 0 7.507 3.145 7.507 7.409 c 0 4.304 -3.458 7.449 -7.507 7.449 c -4.088 0 -7.547 -3.145 -7.547 -7.449 Z m 7.547 6.21 c 3.36 0 6.013 -2.633 6.013 -6.21 c 0 -3.518 -2.653 -6.171 -6.013 -6.171 c -3.401 0 -6.054 2.653 -6.054 6.171 c 0 3.577 2.653 6.21 6.054 6.21 Z m -1.573 -1.906 h -1.297 v -8.568 h 3.262 c 2.025 0 3.027 0.746 3.027 2.436 c 0 1.534 -0.963 2.202 -2.221 2.359 l 2.438 3.773 h -1.456 l -2.259 -3.715 h -1.494 v 3.715 Z m 1.553 -4.815 c 1.1 0 2.083 -0.078 2.083 -1.395 c 0 -1.061 -0.963 -1.257 -1.867 -1.257 h -1.769 v 2.652 h 1.553 Z" />
    </g>
  </svg>